<?xml version="1.0" encoding="iso-8859-1"?>
<!-- Generator: Adobe Illustrator 19.0.0, SVG Export Plug-In . SVG Version: 6.00 Build 0)  -->
<svg version="1.1" id="num2" xmlns="http://www.w3.org/2000/svg" xmlns:xlink="http://www.w3.org/1999/xlink" x="0px" y="0px"
	 viewBox="0 0 512 512" style="enable-background:new 0 0 512 512;" xml:space="preserve" stroke="currentColor" fill="currentColor">
<g>
	<g>
		<path d="M504.115,193.446H398.133L307.007,98.67c-0.036-0.037-0.071-0.074-0.109-0.11c-21.109-21.109-55.457-21.109-76.563-0.001
			c-10.231,10.225-15.865,23.821-15.865,38.284c0,14.462,5.633,28.059,15.865,38.284c0.025,0.026,0.053,0.053,0.079,0.078
			l18.775,18.241H75.17c-1.026,0-2.005,0.196-2.904,0.552c-21.852,3.425-38.624,22.382-38.624,45.181
			c0,11.465,4.251,21.95,11.245,29.984C20.061,269.617,0,289.941,0,314.875c0,18.748,11.345,34.891,27.526,41.942
			c-9.156,8.369-14.91,20.401-14.91,33.754c0,25.217,20.516,45.733,45.733,45.733h11.753c-6.984,8.032-11.227,18.509-11.227,29.963
			c0,25.217,20.516,45.733,45.733,45.733h275.449c4.356,0,7.885-3.53,7.885-7.885s-3.529-7.885-7.885-7.885H104.608
			c-16.522,0-29.963-13.441-29.963-29.963s13.441-29.963,29.963-29.963h58.875c4.356,0,7.885-3.53,7.885-7.885
			c0-4.355-3.529-7.885-7.885-7.885H58.349c-16.522,0-29.963-13.441-29.963-29.963s13.441-29.963,29.963-29.963h109.339
			c4.356,0,7.885-3.53,7.885-7.885c0-4.355-3.529-7.885-7.885-7.885H45.733c-16.522,0-29.963-13.441-29.963-29.963
			s13.441-29.963,29.963-29.963h121.955c4.356,0,7.885-3.53,7.885-7.885c0-4.355-3.529-7.885-7.885-7.885H79.376
			c-16.522,0-29.963-13.441-29.963-29.963s13.441-29.963,29.963-29.963h189.24c3.21,0,6.1-1.946,7.306-4.92
			c1.207-2.974,0.491-6.384-1.811-8.62l-32.666-31.742c-7.226-7.242-11.204-16.861-11.204-27.092
			c0-10.249,3.993-19.884,11.243-27.132c14.944-14.943,39.245-14.962,54.211-0.054l93.397,97.139c1.487,1.547,3.539,2.42,5.683,2.42
			H496.23V496.23h-69.914c-4.356,0-7.885,3.53-7.885,7.885s3.529,7.885,7.885,7.885h77.799c4.356,0,7.885-3.53,7.885-7.885V201.331
			C512,196.976,508.471,193.446,504.115,193.446z"/>
	</g>
</g>
<g>
	<g>
		<path d="M312.333,242.323c-1.496-1.666-3.629-2.619-5.869-2.619c-2.239,0-4.372,0.953-5.869,2.619
			c-6.663,7.425-65.097,73.602-65.097,110.4c0,39.131,31.834,70.965,70.965,70.965s70.965-31.834,70.965-70.965
			C377.429,315.925,318.996,249.748,312.333,242.323z M306.464,407.918c-30.434,0-55.195-24.76-55.195-55.195
			c0-23.461,35.667-70.2,55.195-93.137c19.529,22.937,55.195,69.676,55.195,93.137C361.659,383.158,336.898,407.918,306.464,407.918
			z"/>
	</g>
</g>
<g>
	<g>
		<path d="M343.906,319.97c-2.763-3.365-7.732-3.85-11.098-1.088c-3.364,2.765-3.851,7.734-1.087,11.099
			c9.566,11.646,12.068,26.285,6.541,38.235c-5.722,11.349-18.191,18.676-31.799,18.676c-4.356,0-7.885,3.53-7.885,7.885
			s3.529,7.885,7.885,7.885c19.565,0,37.603-10.79,45.952-27.488c0.032-0.064,0.063-0.127,0.093-0.191
			C360.685,357.461,357.39,336.382,343.906,319.97z"/>
	</g>
</g>
<g>
	<g>
		<path d="M331.29,300.362c-1.231-1.778-2.48-3.544-3.742-5.302c-2.539-3.54-7.469-4.346-11.003-1.809
			c-3.538,2.539-4.349,7.466-1.81,11.003c1.212,1.687,2.41,3.384,3.593,5.091c1.531,2.21,3.989,3.395,6.488,3.395
			c1.55,0,3.114-0.455,4.484-1.405C332.88,308.855,333.77,303.942,331.29,300.362z"/>
	</g>
</g>
<g>
	<g>
		<path d="M97.235,109.407c-5.352-0.711-18.843-3.692-28.475-15.972c-6.844-8.731-8.486-18.201-8.856-23.067
			c-0.311-4.112-3.739-7.288-7.862-7.288s-7.551,3.176-7.863,7.288c-0.37,4.867-2.012,14.336-8.855,23.066
			c-9.633,12.283-23.123,15.263-28.476,15.974C2.928,109.929,0,113.271,0,117.224s2.928,7.295,6.847,7.817
			c5.353,0.711,18.843,3.691,28.475,15.972c6.844,8.731,8.486,18.201,8.856,23.067c0.311,4.112,3.739,7.288,7.862,7.288
			s7.551-3.176,7.863-7.288c0.37-4.867,2.012-14.336,8.855-23.066c9.633-12.283,23.123-15.263,28.476-15.974
			c3.918-0.52,6.846-3.863,6.846-7.816S101.154,109.929,97.235,109.407z M56.349,131.283c-1.64,2.092-3.068,4.206-4.308,6.315
			c-1.242-2.109-2.668-4.224-4.309-6.316c-4.949-6.309-10.615-10.826-16.15-14.058c5.535-3.233,11.202-7.749,16.151-14.06
			c1.64-2.092,3.068-4.206,4.308-6.315c1.241,2.108,2.668,4.223,4.308,6.315c0,0,0,0.001,0.001,0.001
			c4.949,6.309,10.615,10.826,16.15,14.058C66.965,120.457,61.298,124.973,56.349,131.283z"/>
	</g>
</g>
<g>
	<g>
		<path d="M446.28,109.406c-5.353-0.711-18.843-3.691-28.475-15.972c-6.844-8.731-8.486-18.201-8.856-23.067
			c-0.313-4.111-3.741-7.287-7.864-7.287c-4.123,0-7.551,3.176-7.863,7.288c-0.37,4.867-2.012,14.336-8.856,23.067
			c-9.632,12.281-23.123,15.262-28.475,15.973c-3.919,0.52-6.847,3.863-6.847,7.817c0,3.954,2.929,7.294,6.848,7.816
			c5.353,0.711,18.843,3.691,28.475,15.972c6.844,8.731,8.486,18.201,8.857,23.067c0.312,4.112,3.74,7.288,7.863,7.288
			s7.551-3.176,7.863-7.288c0.37-4.867,2.012-14.336,8.855-23.066c9.633-12.283,23.123-15.263,28.476-15.974
			c3.919-0.52,6.847-3.863,6.847-7.817C453.127,113.269,450.199,109.928,446.28,109.406z M405.393,131.283
			c-1.64,2.092-3.068,4.206-4.308,6.315c-1.242-2.109-2.668-4.224-4.309-6.316c-4.949-6.309-10.615-10.826-16.15-14.058
			c5.535-3.232,11.201-7.748,16.15-14.058c1.641-2.093,3.069-4.208,4.309-6.316c1.242,2.109,2.668,4.224,4.309,6.316
			c4.949,6.309,10.615,10.826,16.15,14.058C416.008,120.457,410.341,124.973,405.393,131.283z"/>
	</g>
</g>
<g>
	<g>
		<path d="M248.627,46.327c-5.352-0.711-18.843-3.692-28.475-15.972c-6.844-8.731-8.486-18.201-8.856-23.067
			C210.984,3.176,207.557,0,203.433,0c-4.123,0-7.551,3.176-7.863,7.288c-0.37,4.867-2.012,14.336-8.855,23.066
			c-9.633,12.283-23.123,15.263-28.477,15.974c-3.918,0.52-6.846,3.863-6.846,7.816s2.928,7.295,6.847,7.817
			c5.353,0.711,18.843,3.691,28.475,15.972c6.844,8.731,8.486,18.201,8.856,23.067c0.312,4.112,3.74,7.288,7.863,7.288
			c4.123,0,7.551-3.176,7.863-7.288c0.37-4.867,2.012-14.336,8.855-23.066c9.633-12.283,23.123-15.263,28.476-15.974
			c3.917-0.52,6.845-3.863,6.845-7.816S252.546,46.849,248.627,46.327z M207.742,68.203c-1.64,2.092-3.068,4.206-4.308,6.315
			c-1.242-2.109-2.668-4.224-4.309-6.316c-4.949-6.309-10.615-10.826-16.15-14.058c5.535-3.233,11.202-7.749,16.151-14.06
			c1.64-2.092,3.068-4.206,4.308-6.315c1.241,2.108,2.668,4.223,4.308,6.315c0,0,0,0.001,0.001,0.001
			c4.949,6.309,10.615,10.826,16.15,14.058C218.357,57.377,212.69,61.893,207.742,68.203z"/>
	</g>
</g>
<g>
</g>
<g>
</g>
<g>
</g>
<g>
</g>
<g>
</g>
<g>
</g>
<g>
</g>
<g>
</g>
<g>
</g>
<g>
</g>
<g>
</g>
<g>
</g>
<g>
</g>
<g>
</g>
<g>
</g>
</svg>
