<?xml version="1.0" encoding="iso-8859-1"?>
<!-- Generator: Adobe Illustrator 19.0.0, SVG Export Plug-In . SVG Version: 6.00 Build 0)  -->
<svg version="1.1" id="close" xmlns="http://www.w3.org/2000/svg" xmlns:xlink="http://www.w3.org/1999/xlink" x="0px" y="0px"
	 viewBox="0 0 512 512" style="enable-background:new 0 0 512 512;" xml:space="preserve" fill="currentColor" stroke="currentColor">
<g>
	<g>
		<path d="M498.872,0H13.128C5.878,0,0,5.878,0,13.128v485.744C0,506.123,5.878,512,13.128,512h485.744
			c7.249,0,13.128-5.877,13.128-13.128V13.128C512,5.878,506.121,0,498.872,0z M485.744,485.744H26.256V26.256h459.487V485.744z"/>
	</g>
</g>
<g>
	<g>
		<path d="M446.359,52.513H65.641c-7.251,0-13.128,5.878-13.128,13.128v380.718c0,7.251,5.878,13.128,13.128,13.128h380.718
			c7.249,0,13.128-5.878,13.128-13.128V65.641C459.487,58.39,453.608,52.513,446.359,52.513z M433.231,433.231H78.769V78.769
			h354.462V433.231z"/>
	</g>
</g>
<g>
	<g>
		<path d="M311.816,256.137l70.613-70.613c15.355-15.356,15.355-40.343,0.001-55.699c-15.356-15.356-40.343-15.356-55.7,0
			l-70.611,70.613l-70.613-70.613c-15.356-15.355-40.342-15.355-55.699,0c-15.356,15.356-15.356,40.342,0,55.699l70.613,70.613
			l-70.613,70.611c-15.356,15.356-15.356,40.342,0,55.699c7.44,7.438,17.329,11.536,27.849,11.536
			c10.52,0,20.41-4.097,27.849-11.536l70.613-70.613l70.611,70.613c7.44,7.438,17.329,11.536,27.85,11.536s20.41-4.097,27.85-11.536
			c15.353-15.356,15.353-40.342,0-55.698L311.816,256.137z M363.863,363.878c-2.48,2.48-5.776,3.845-9.283,3.845
			c-3.507,0-6.804-1.365-9.283-3.845l-79.894-79.894c-2.564-2.564-5.923-3.845-9.283-3.845c-3.359,0-6.72,1.283-9.283,3.845
			l-79.896,79.894c-2.48,2.48-5.776,3.845-9.283,3.845s-6.803-1.365-9.283-3.845c-5.119-5.119-5.119-13.447,0-18.566l79.896-79.896
			c5.127-5.127,5.127-13.439,0-18.567l-79.896-79.896c-5.119-5.119-5.119-13.447,0-18.566c5.117-5.119,13.447-5.119,18.566,0
			l79.896,79.896c2.463,2.462,5.801,3.845,9.283,3.845c3.482,0,6.82-1.384,9.283-3.845l79.894-79.894
			c5.117-5.12,13.448-5.119,18.567,0c5.117,5.12,5.117,13.45-0.001,18.567l-79.896,79.896c-2.462,2.462-3.845,5.801-3.845,9.283
			c0,3.482,1.384,6.821,3.845,9.283l79.896,79.894C368.98,350.431,368.98,358.761,363.863,363.878z"/>
	</g>
</g>
<g>
</g>
<g>
</g>
<g>
</g>
<g>
</g>
<g>
</g>
<g>
</g>
<g>
</g>
<g>
</g>
<g>
</g>
<g>
</g>
<g>
</g>
<g>
</g>
<g>
</g>
<g>
</g>
<g>
</g>
</svg>
